# xmcd
#
# Track frame offsets:
#	150
#	8743
#	21052
#	32815
#	43771
#	55516
#	64151
#	75822
#	85205
#	95708
#	107098
#	116514
#	128038
#	136963
#	147493
#	160956
#
# Disc length: 2287 seconds
#
# Revision: 0
# Processed by: cddbd v1.5.2PL0 Copyright (c) Steve Scherf et al.
# Submitted via: EasyCDDAExtractor 2011.0.0.0
#
DISCID=cb08ed10
DTITLE=Jerry Lewis - The Great Jerry Lee Lewis - Disc 2 of 3
DYEAR=2000
DGENRE=Country
TTITLE0=Great Balls Of Fire
TTITLE1=Breathless
TTITLE2=I'm Sorry, I'm Not Sorry
TTITLE3=Mean Woman Blues
TTITLE4=Drinkin' Wine Spo-Dee-O-Dee
TTITLE5=Johny B. Goode
TTITLE6=Hang Up Your Rock 'n' Roll Shoes
TTITLE7=Pumping Piano Rock
TTITLE8=Hand Me Down My Walking Cane
TTITLE9=Keep Your Hands Off It
TTITLE10=Hound Dog
TTITLE11=Cool Cool Ways (Sexy Ways)
TTITLE12=Baby Baby Bye Bye
TTITLE13=Break Up
TTITLE14=It Won't Happen With Me
TTITLE15=Bonnie B
EXTD=
EXTT0=
EXTT1=
EXTT2=
EXTT3=
EXTT4=
EXTT5=
EXTT6=
EXTT7=
EXTT8=
EXTT9=
EXTT10=
EXTT11=
EXTT12=
EXTT13=
EXTT14=
EXTT15=
PLAYORDER=
